<svg version="1.1" xmlns="http://www.w3.org/2000/svg" style="display: block;" viewBox="0 0 2048 2048" width="2048" height="2048" preserveAspectRatio="none">
<defs>
	<linearGradient id="Gradient1" gradientUnits="userSpaceOnUse" x1="1269.23" y1="529.318" x2="1283.24" y2="483.267">
		<stop class="stop0" offset="0" stop-opacity="1" stop-color="rgb(91,139,155)"/>
		<stop class="stop1" offset="1" stop-opacity="1" stop-color="rgb(122,165,181)"/>
	</linearGradient>
	<linearGradient id="Gradient2" gradientUnits="userSpaceOnUse" x1="623.067" y1="1554.6" x2="756.778" y2="1397.47">
		<stop class="stop0" offset="0" stop-opacity="1" stop-color="rgb(168,210,192)"/>
		<stop class="stop1" offset="1" stop-opacity="1" stop-color="rgb(170,207,210)"/>
	</linearGradient>
	<linearGradient id="Gradient3" gradientUnits="userSpaceOnUse" x1="1137.47" y1="96.7352" x2="904.513" y2="1925.48">
		<stop class="stop0" offset="0" stop-opacity="1" stop-color="rgb(122,168,135)"/>
		<stop class="stop1" offset="1" stop-opacity="1" stop-color="rgb(111,156,161)"/>
	</linearGradient>
</defs>
<path transform="translate(0,0)" fill="url(#Gradient3)" d="M 932.766 170.411 C 1026.77 122.525 1149.98 101.682 1255.35 106.649 C 1327.86 110.067 1425.22 139.221 1483.22 184.572 C 1503.29 198.78 1531.82 220.657 1548.39 238.784 C 1577.41 270.527 1595.23 321.463 1602.11 363.352 C 1603.24 370.187 1602.83 386.632 1605.4 389.289 C 1635.81 420.743 1685.8 463.593 1715.44 493.232 C 1728.47 503.211 1746.75 513.116 1757.74 522.42 C 1831.97 585.28 1902.25 660.641 1941.52 750.921 C 1948.27 761.15 1953.78 777.262 1958.5 788.808 C 1981.23 844.477 1992.96 905.82 1980.38 965.452 C 1977.69 978.217 1971.83 1000.28 1962.12 1010.06 C 1956.58 1021.57 1935.4 1039.56 1921.85 1043.51 C 1892.61 1052.05 1857.4 1039.68 1829.09 1031.7 C 1813.46 1027.29 1818.83 1075.85 1819.94 1082.05 C 1830.42 1140.88 1844.26 1198.69 1847.45 1258.62 C 1849.42 1319.75 1847.57 1395.96 1829.87 1455.2 C 1825 1477.25 1813.67 1506.78 1804.78 1527.83 C 1801.8 1534.9 1792.59 1545.88 1788.67 1552.83 C 1781.32 1565.88 1774.27 1578.86 1766.25 1591.54 C 1741.25 1631.36 1710.51 1667.26 1675.02 1698.1 C 1670.14 1702.36 1651.16 1718.72 1645.91 1720.49 C 1608.77 1747.5 1559.02 1773.83 1516.26 1790.74 C 1481.5 1803.97 1446.42 1814.35 1408.67 1812.02 C 1389.88 1811.29 1376.6 1811.46 1357.75 1812.64 C 1306.66 1820.22 1288.32 1839.88 1244.36 1856.23 C 1206 1870.5 1146 1894.27 1107.21 1901.74 C 1096.33 1905.88 1075.51 1909.94 1063.85 1912.61 C 981.388 1931.5 890.315 1931.93 806.843 1920.07 C 763.109 1912.95 715.959 1904.02 674.144 1889.29 C 526.221 1837.19 395.063 1726.7 344.82 1574.89 C 342.414 1567.62 336.444 1539.94 332.339 1535.3 C 309.007 1508.89 281.957 1482.55 255.954 1458.54 C 239.347 1443.35 218.561 1428.91 203.303 1412.61 C 172.668 1379.89 141.6 1339.49 122.08 1298.99 C 84.5283 1221.05 54.5783 1105.29 66.9643 1018.82 C 66.6713 1015.37 67.7078 1006.54 68.1665 1002.59 C 72.3951 966.158 83.6976 931.704 97.0498 897.797 C 100.582 884.711 127.911 841.864 137.507 830.827 C 139.584 825.121 158.597 803.551 162.714 796.302 C 172.635 778.837 189.573 750.289 196.314 731.961 C 209.256 696.775 214.299 653.725 224.473 617.216 C 227.273 607.168 229.292 596.135 233.223 586.659 C 235.487 577.94 242.066 562.83 245.211 553.157 C 269.404 478.733 301.907 407.254 354.62 348.446 C 363.163 338.915 370.743 329.727 380.259 320.803 C 403.156 294.036 465.604 244.706 497.625 230.078 C 569.327 192.807 652.043 182.568 730.668 201.233 C 757.258 207.455 781.299 218.734 809.122 215.573 C 845.801 211.404 880.246 190.299 915.356 178.481 C 917.361 177.057 930.154 171.532 932.766 170.411 z M 1565.03 480.603 C 1556.54 482.851 1549.77 484.416 1541.85 488.371 C 1523.45 499.866 1517.87 525.782 1508.65 544.487 C 1501.45 559.125 1495.27 572.348 1485.61 585.873 C 1528.34 624.324 1570.4 663.712 1607.27 707.998 C 1633.72 739.764 1662.55 770.762 1688.01 802.931 C 1736.54 864.247 1779.59 927.376 1850.72 965.121 C 1878.22 979.842 1902.8 989.323 1926.26 961.122 C 1960.64 919.803 1935.48 828.992 1920.81 783.012 C 1906.26 744.014 1887.59 706.678 1865.13 671.634 C 1859.17 665.681 1842.43 641.018 1836.14 632.834 C 1817.36 608.839 1796.5 586.552 1773.8 566.234 C 1756.01 549.762 1723.41 526.99 1703.01 514.198 C 1699.75 512.945 1686.79 505.852 1683.05 503.882 C 1672.01 498.068 1662.68 493.852 1651.16 489.044 C 1630.17 482.268 1619.26 480.188 1597.78 477.535 C 1583.99 478.862 1579.77 477.709 1565.03 480.603 z M 1587.25 1149.77 C 1593.95 1248.89 1572.7 1352.25 1523.29 1438.83 C 1516.84 1450.13 1509.84 1460.84 1501.3 1470.69 C 1500.84 1561.91 1472.39 1634.49 1416.84 1706.11 C 1406.26 1719.76 1388.23 1734.05 1384.39 1751.33 C 1383.31 1756.16 1384.37 1760.87 1387.03 1764.99 C 1391.2 1771.47 1398.43 1775.81 1405.9 1777.27 C 1439.7 1783.84 1527.9 1749.6 1560.6 1736.16 C 1571.92 1731.51 1583.98 1728.01 1594.14 1721.03 C 1618.37 1704.4 1640.77 1683.7 1661.49 1662.89 C 1722.62 1601.46 1762.7 1537.99 1789.53 1455.62 C 1797.42 1432.05 1803.79 1408 1808.6 1383.61 C 1828.13 1279.89 1823.29 1137.68 1763.02 1046.76 C 1729.93 1000.36 1673.7 960.166 1616.55 952.002 C 1597.76 949.317 1575.8 952.14 1558.87 948.569 L 1557.18 949.81 C 1571.89 1001.62 1586.81 1095.35 1587.25 1149.77 z M 748.772 530.857 C 760.576 524.036 772.141 515.639 783.73 509.335 C 836.16 480.837 892.313 459.802 950.562 446.839 C 963.342 443.981 976.24 441.676 989.219 439.932 C 993.593 439.306 1004.77 438.198 1008.24 437.426 C 1039.45 431.373 1115.54 434.861 1143.41 446.339 C 1167.37 438.65 1190.57 426.694 1215.55 420.418 C 1270.15 406.703 1327.38 400.993 1383.52 399.055 C 1400.3 398.6 1417.08 398.595 1433.86 399.043 C 1458.86 399.782 1485 402.346 1510.19 396.831 C 1519.05 394.89 1530.03 378.942 1534.36 371.017 C 1542.73 355.726 1540.76 327.521 1534.59 311.265 C 1513.69 256.159 1455.67 206.016 1404.01 180.786 C 1340.28 149.666 1270.56 136.989 1200.31 138.489 C 1087.76 142.971 1008.08 161.288 911.783 222.722 C 889.433 236.98 861.726 255.194 843.652 274.725 C 814.926 305.767 827.071 304.103 820.726 339.014 C 815.532 367.588 805.33 395.717 793.01 421.951 C 786.818 435.135 779.212 447.536 772.838 460.602 C 763.838 479.048 752.984 510.744 748.772 530.857 z M 313.198 805.242 C 353.028 858.93 369.193 917.324 398.436 976.078 C 402.051 983.341 404.602 994.721 409.783 1000.42 L 410.467 1001.19 C 412.518 996.599 414.975 982.44 416.651 976.231 C 440.52 887.773 480.033 804.549 516.354 720.754 C 525.609 699.401 531.838 676.76 539.634 654.878 C 547.35 633.591 557.532 612.485 566.935 591.884 C 608.471 505.663 656.975 424.298 710.396 345.003 C 717.728 333.231 731.706 302.169 730.589 288.408 C 727.009 244.264 643.141 237.773 611.69 242.168 C 584.131 245.502 558.267 257.887 532.435 266.807 C 450.882 294.97 381.851 357.34 337.921 430.847 C 333.524 438.205 326.764 444.098 322.256 451.219 C 318.545 457.082 315.999 464.774 312.387 470.841 C 296.529 499.535 285.699 525.217 276.297 556.565 C 270.355 576.38 267.073 575.739 263.715 599.306 C 255.822 659.173 234.356 707.628 277.585 761.778 C 278.7 763.175 288.791 775.806 289.137 776.414 C 294.948 782.639 309.493 798.212 313.198 805.242 z M 957.798 1677.01 C 927.967 1677.33 833.835 1654.43 808.312 1639.74 C 786.173 1643.04 763.332 1643.53 741.002 1643.49 C 666.961 1643.52 593.297 1632.95 522.248 1612.12 C 493.954 1603.87 467.584 1590.08 438.67 1584.47 C 421.897 1581.22 407.993 1584.99 400.182 1600.79 C 428.4 1694.14 531.732 1779.83 614.95 1824.34 C 784.87 1915.24 997.009 1928.07 1173.7 1848.42 C 1202.06 1835.63 1212.15 1836.69 1229.44 1803.61 C 1243.96 1775.83 1243 1730.48 1236.48 1700.06 C 1218.33 1646.55 1123.45 1674.95 1083.67 1677.03 C 1043.52 1679.12 997.146 1683.47 957.798 1677.01 z M 89.9758 1025.39 C 89.9847 1039.89 89.5342 1058.98 90.6126 1073.06 C 93.2751 1107.82 99.0713 1142.56 106.254 1176.49 C 121.594 1250.74 151.649 1322.28 205.948 1376.55 C 232.608 1403.19 258.708 1420.92 291.2 1439.61 C 310.629 1450.79 334.342 1470.91 341.521 1433.05 C 348.379 1396.88 352.054 1359.79 360.847 1323.95 C 362.701 1316.13 364.706 1305.84 367.598 1298.48 C 360.351 1287.48 353.272 1276.38 346.362 1265.17 C 317.797 1217.48 282.574 1151.85 264.339 1098.93 C 262.202 1096.13 254.62 1073.48 252.975 1068.78 C 247.044 1052.28 241.475 1035.66 236.272 1018.91 C 223.923 977.936 210.374 919.132 179.349 888.25 C 173.301 882.23 165.066 877.127 156.189 877.487 C 148.081 877.816 144.023 885.185 138.538 891.204 C 133.272 900.888 125.948 908.196 120.488 917.611 C 100.741 951.662 94.5033 986.884 89.9758 1025.39 z M 808.612 1609.83 C 823.483 1599.75 843.01 1601.05 859.999 1597.16 C 885.82 1591.26 922.836 1583.77 932.098 1555.47 C 922.549 1525.88 889.671 1519.02 865.505 1505.02 C 836.205 1488.05 804.157 1471.04 777.584 1449.99 C 748.713 1427.12 723.154 1396.02 700.311 1367.27 C 687.478 1349.8 681.295 1333.55 662.321 1319.68 C 658.896 1317.17 650.183 1308.74 647.632 1305.67 C 578.963 1255.75 493.836 1196.46 453.65 1120.1 L 452.142 1121.03 C 449.61 1132.53 448.937 1158.73 447.593 1172.19 C 443.299 1213.17 437.504 1253.97 430.218 1294.51 C 428.935 1301.74 424.969 1325.96 423.283 1331.28 C 486.832 1405.93 539.985 1462.88 624.244 1515.58 C 661.899 1539.64 701.174 1561.07 741.787 1579.71 C 754.929 1585.59 801.567 1602.03 808.612 1609.83 z M 1049.17 557.004 C 1042.21 572.248 1029.57 592.284 1049.44 603.419 C 1061.25 610.039 1073.6 613.626 1085.92 619.033 C 1161.81 652.35 1227.71 703.523 1290.82 756.835 C 1308.68 772.047 1326.45 787.36 1344.13 802.774 C 1381.92 836.164 1427.6 881.629 1479.36 889.526 C 1485.81 890.51 1496.78 893.18 1502.57 890.16 C 1499.12 884.546 1492.56 865.833 1490.07 858.907 C 1478.75 829.195 1470.32 797.777 1459.02 768.13 C 1449.44 742.979 1435.2 718.1 1426.79 692.021 C 1423.63 682.241 1419.44 672.691 1416.36 662.719 C 1411.66 647.738 1408.82 632.237 1407.89 616.564 C 1405.05 604.503 1408.07 589.305 1408.11 575.739 C 1400.39 572.954 1375.15 558.63 1365.94 553.994 C 1342.35 542.244 1318.17 531.702 1293.51 522.408 C 1256.81 508.322 1216.24 497.01 1177.49 490.088 C 1160.07 486.977 1140.26 487.366 1123.11 483.606 L 1121.35 483.21 C 1097.03 499.018 1063.03 531.933 1049.17 557.004 z M 1124.09 966.129 C 1157.37 949.839 1173.28 942.725 1209.51 932.127 C 1232.6 925.882 1296.31 904.364 1303.49 886.126 C 1331.02 816.221 1217.59 737.879 1167.78 708.839 C 1136.13 690.39 1099.24 682.534 1069.89 683.347 C 1024.23 687.967 996.809 706.355 1003.37 757.169 C 1011.15 817.435 1051.36 863.343 1084.7 911.279 C 1095.09 926.014 1112.8 953.543 1124.09 966.129 z M 952.918 1016.23 C 974.157 1010.19 995.818 1003.09 1016.16 994.46 C 1033.69 987.025 1058.48 973.634 1076.49 968.033 C 1037.9 917.631 1011.97 862.865 986.065 805.291 C 970.607 770.938 966.695 721.812 917.674 727.351 C 907.708 730.078 894.506 731.563 885.365 734.912 C 859.713 744.312 837.976 768.729 824.301 791.658 C 818.369 802.38 815.511 812.773 808.069 822.74 C 806.682 824.598 803.598 836.605 802.473 839.588 C 781.421 895.415 816.355 970.078 866.792 998.056 C 886.236 1008.84 914.075 1015.02 936.498 1015.57 C 941.424 1015.75 948.179 1016.87 952.918 1016.23 z M 1218.67 1089 C 1226.06 1097.67 1229.65 1107.6 1235.84 1116.66 C 1250.59 1138.23 1268.81 1157.47 1287.15 1175.98 C 1291.67 1180.54 1304.75 1190.08 1307.3 1194.18 C 1312.61 1197.8 1320.07 1205.34 1325.46 1209.61 C 1347.14 1226.77 1375.69 1249.89 1405.24 1246.17 C 1416.52 1244.75 1423.8 1243.04 1431.22 1234.24 C 1455.17 1205.83 1453.28 1156.07 1449.04 1120.49 C 1443.53 1074.26 1425.97 1025.16 1388.06 995.435 C 1347.43 963.578 1315.19 963.968 1265.77 969.234 C 1245.34 971.41 1224.32 974.546 1204.3 978.925 C 1184.61 983.229 1166.31 989.688 1146.21 991.899 C 1171.95 1025.03 1194.93 1054.49 1218.67 1089 z M 1520.22 951.389 L 1519.22 951.596 C 1498.8 955.628 1478.18 952.149 1463.08 972.434 C 1452.21 987.043 1453.85 1011.49 1457.61 1028.65 C 1468.62 1079.1 1483.39 1130.07 1486.28 1181.89 C 1487.89 1210.83 1478.7 1241.37 1474.78 1270.07 C 1468.91 1312.98 1482.52 1354.54 1490.25 1396.28 C 1491.1 1400.88 1491.83 1405.74 1493.13 1410.19 C 1522.58 1377.2 1536.57 1313.29 1545.03 1270.81 C 1544.98 1264.72 1547.48 1245.98 1548.25 1238.5 C 1550.02 1221.28 1551.11 1203.99 1551.51 1186.68 C 1552.74 1126.01 1543.3 1060.7 1532.76 1000.85 C 1530.54 988.256 1526.01 962.091 1520.22 951.389 z M 751.182 360.729 C 718.739 377.008 672.574 441.27 655.144 474.161 C 649.479 485.048 644.733 496.389 640.955 508.067 C 633.265 531.22 617.242 578.561 641.258 596.237 C 657.9 601.351 696.851 573.4 705.339 559.745 C 719.58 536.834 724.272 502.598 734.391 476.762 C 740.201 461.929 780.092 362.69 751.182 360.729 z M 1304.97 1491.3 C 1290.44 1500.93 1257.9 1508.74 1240.48 1514.13 C 1208.44 1524.05 1176.08 1531.55 1143.58 1539.49 C 1118.29 1547.68 1088.66 1553.04 1063.94 1562.07 C 1028.28 1575.08 992.583 1596.76 956.158 1609.51 C 951.899 1611.01 905.533 1631.2 905.795 1630.95 C 908.363 1633.5 909.864 1633.08 914.072 1634.09 C 970.302 1646.83 1023.8 1647.59 1080.78 1642.05 C 1094.19 1638.31 1111.27 1639.62 1124.75 1636.84 C 1198.98 1621.54 1295.73 1577.06 1304.97 1491.3 z M 1482.82 684.173 C 1491.34 728.482 1502.17 764.945 1515.43 807.883 C 1520.44 824.108 1540.93 882.421 1541.61 895.678 C 1551.82 893.154 1597.93 892.247 1608.91 896.509 C 1618.2 900.116 1631.74 905.617 1641.94 908.782 C 1646.84 911.428 1659.29 906.849 1663.07 907.929 C 1709.16 921.08 1700.77 897.139 1684.46 861.204 C 1652.45 790.701 1601.74 727.701 1543.9 676.153 C 1526.79 660.91 1492.38 635.597 1480.27 617.829 L 1479.47 616.633 L 1479.1 632.551 C 1479.86 649.408 1480.45 667.555 1482.82 684.173 z M 736.232 1612.35 C 723.755 1604.96 703.824 1595.93 689.394 1587.76 C 619.068 1547.92 551.66 1501.47 492.747 1445.8 C 475.249 1429.34 458.655 1411.94 443.039 1393.68 C 430.438 1378.88 418.628 1360.01 404.501 1349.09 C 405.489 1370.66 395.749 1392.62 394.486 1417.39 C 387.713 1550.22 538.767 1577.98 638.413 1601.57 C 645.581 1603.24 728.527 1613.94 736.232 1612.35 z M 627.052 915.868 C 634.776 928.756 640.453 935.657 649.099 947.722 C 691.703 868.135 675.711 790.098 684.942 704.967 C 685.824 696.838 693.039 643.428 692.132 640.406 C 690.063 639.541 690.988 639.561 689.421 639.813 C 679.591 646.291 670.018 652.148 661.073 659.9 C 572.867 736.336 573.611 818.903 627.052 915.868 z M 737.58 585.915 C 734.867 597.073 734.382 606.917 732.616 617.72 C 728.206 644.684 726.1 657.435 729.579 684.901 C 733.688 704.138 743.523 723.203 766.261 722.931 C 787.336 722.68 805.87 706.29 823.029 696.008 C 838.926 686.483 855.668 677.904 871.192 667.7 C 912.542 641.461 944.576 610.275 978.947 575.555 C 997.835 556.478 1010.96 538.246 1030.68 519.098 C 1048.14 502.147 1063.85 494.17 1079.97 480.353 C 1053.24 482.71 1027.02 482.304 1000.06 485.138 C 970.615 488.232 947.578 493.199 919.284 499.885 C 849.066 516.476 793.376 539.61 737.58 585.915 z M 1421.85 542.976 C 1422.52 539.326 1423.38 533.267 1425.76 530.754 C 1428.82 530.496 1429.43 530.787 1431.7 528.783 C 1431.15 526.782 1431.06 526.437 1430.89 524.377 C 1434.3 520.488 1436.45 523.472 1438.71 520.066 C 1436.36 518.797 1436.97 519.393 1435.24 517.516 L 1436.44 516.592 L 1440.48 517.492 C 1446.32 513.193 1442.74 506.779 1451.03 506.848 C 1454.25 505.289 1456.45 500.254 1458.7 496.773 L 1462.01 496.381 C 1478.31 479.666 1490.31 469.75 1474.95 446.859 C 1460.82 425.782 1440.87 426.216 1418.74 421.964 C 1340.63 415.384 1262.01 424.681 1187.6 449.293 C 1193.42 453.101 1210.77 454.994 1218.38 456.893 C 1278.07 471.799 1337 493.662 1391.68 521.924 C 1399.7 526.07 1410.27 531.433 1416.8 537.708 C 1417.5 539.318 1417.59 539.078 1417.76 540.753 C 1418.43 541.129 1421.34 542.837 1421.85 542.976 z M 1245.54 1261.42 C 1249.25 1258.95 1250.2 1258.75 1251.8 1254.85 C 1251.28 1249.16 1248.65 1248.95 1243.7 1247.57 C 1239.72 1252.14 1239.3 1253.03 1239.54 1259.09 C 1241.15 1262.02 1239.96 1260.96 1243.5 1262.03 L 1245.54 1261.42 z M 357.131 1226.02 C 362.571 1233.96 365.267 1241.94 370.114 1250.08 C 377.478 1245.12 377.488 1225.76 379.243 1216.89 C 388.807 1168.52 392.137 1119.34 399.41 1070.65 C 400.362 1064.28 403.781 1058.32 405.361 1051.76 L 405.603 1050.72 C 402.649 1041.88 386.912 1015.41 381.495 1005.14 C 358.35 961.213 335.434 917.56 304.641 878.333 C 298.668 870.724 291.391 864.866 286.136 858.308 C 280.568 856.218 275.442 853.8 269.506 856.292 C 263.403 858.854 259.907 864.245 257.588 870.217 C 241.162 912.506 273.256 1024.43 288.828 1067.01 C 308.526 1124.74 326.522 1172.41 357.131 1226.02 z M 1345.46 1627.02 C 1335.9 1637.24 1326.28 1649.84 1317.26 1660.7 C 1301.42 1679.78 1283.37 1700.35 1293.05 1726.71 C 1335.95 1766.15 1387.19 1697.58 1407.93 1666.57 C 1441.3 1616.69 1471.81 1559.92 1475.55 1498.91 C 1455.85 1520.28 1445.76 1531.72 1422.09 1549.49 C 1404.37 1563.82 1392.33 1573.66 1376.47 1590.41 C 1365.43 1602.06 1355.5 1616.25 1345.46 1627.02 z M 1114.66 1019.24 C 1070.09 1042.12 992.026 1049.21 970.357 1102.98 C 965.745 1114.43 968.228 1131.97 974.489 1142.44 C 996.411 1179.09 1032.78 1204.68 1047.51 1246.04 C 1048.47 1248.73 1053.84 1265.28 1054.91 1266.37 C 1060.57 1263.84 1077.35 1258.65 1083.96 1256.54 C 1103.75 1250.21 1116.45 1244.8 1134.79 1235.5 C 1153.43 1223.93 1185.76 1211.84 1191.05 1188.81 C 1199.92 1150.12 1135.73 1054.74 1114.66 1019.24 z M 1359.57 1421.25 C 1381.97 1400.8 1389.13 1378.48 1391.04 1348.4 C 1392.1 1331.65 1388.77 1312.88 1376.82 1300.22 C 1370.2 1293.22 1361 1289.26 1351.37 1289.25 C 1351.09 1289.27 1350.81 1289.29 1350.53 1289.31 C 1329.47 1292.43 1327.83 1302.59 1329.55 1321.94 C 1331.47 1343.49 1335.26 1364.93 1337.62 1386.44 C 1339.43 1400.34 1339.98 1418.2 1342.48 1431.26 C 1347.38 1431.98 1356.05 1424.66 1359.57 1421.25 z M 682.998 978.135 C 699.968 992.503 705.667 998.879 726.926 1006.48 C 778.846 1018.5 783.003 965.608 760.177 934.144 C 752.787 923.957 748.056 919.745 735.333 921.326 C 703.093 932.726 698.263 954.13 682.998 978.135 z M 992.015 1279.76 C 986.658 1268.26 979.982 1258.66 974.846 1245.99 C 960.916 1211.63 926.607 1179.12 901.676 1152.19 C 867.114 1114.86 814.734 1087.77 768.924 1066.6 C 731.817 1049.46 705.661 1038.32 671.838 1014.22 C 671.761 1017.9 672.522 1023.51 672.218 1026.47 C 669.094 1057.02 670.949 1085.61 675.793 1115.81 C 678.063 1129.95 677.002 1143.95 683.92 1157.74 C 690.512 1173.45 699.247 1187.3 707.845 1202 C 713.629 1211.72 724.739 1233.12 731.936 1239.77 C 754.331 1260.46 779.42 1269.59 807.517 1278.08 L 808.503 1278.27 C 820.606 1280.61 831.77 1285.28 844.095 1286.92 C 892.638 1293.36 940.13 1283.19 988.528 1281.32 C 989.579 1281.28 991.145 1280.28 992.015 1279.76 z M 1369.21 1517.8 C 1380.51 1517.12 1386.72 1516.15 1397.44 1511.81 C 1401.61 1510.12 1405.26 1507.36 1409.46 1506.89 L 1410.66 1505.74 C 1419.15 1497.65 1469.91 1459.43 1472.42 1446.32 C 1473.57 1440.34 1450.19 1404.81 1443.89 1400.6 C 1427.47 1389.13 1415.92 1411.57 1405.92 1421.59 C 1395.27 1432.26 1384.31 1444.31 1374.15 1455.57 C 1367.23 1462.98 1352.94 1471.02 1345.68 1479.35 C 1341.02 1495.22 1355.28 1512.08 1369.21 1517.8 z M 619.25 1176.69 C 618.069 1161.28 618.821 1144.73 619.407 1129.21 C 620.16 1109.27 619.634 1083.7 621.958 1063.97 C 621.854 1049.05 624.318 1018.48 628.929 1004.4 C 630.564 999.401 635.38 992.006 637.626 986.553 C 614.48 960.751 592.589 933.849 572.03 905.941 C 561.567 891.919 552.199 877.366 541.603 863.55 C 532.77 852.032 524.861 854.245 515.327 864.41 C 505.319 875.082 498.521 891.656 492.765 904.93 C 482.786 932.384 447.118 1049.57 447.407 1072.12 C 454.759 1080.52 461.929 1090.99 469.127 1099.84 C 489.923 1125.4 511.682 1152.85 538.581 1172.11 C 553.269 1182.64 578.286 1196.02 596.96 1192.51 C 607.502 1190.53 613.44 1184.9 619.25 1176.69 z M 792.073 1340.45 C 785.124 1341.98 779.399 1345.08 773.387 1348.69 C 784.964 1354.51 797.845 1369.66 806.683 1379.38 C 844.121 1420.56 867.911 1450.81 921.665 1472.89 C 945.61 1484.63 966.667 1481.13 991.451 1471.34 C 1051.44 1447.65 1044.42 1365.29 1025.48 1318.53 C 1023.08 1314.43 1024.24 1315.09 1020.58 1313.14 C 1012.8 1313.04 991.042 1317.21 982.19 1318.62 C 962.687 1321.65 943.141 1324.4 923.556 1326.86 C 907.103 1328.81 890.601 1330.33 874.069 1331.44 C 855.747 1332.6 808.223 1334.45 792.073 1340.45 z M 1134.38 1293.96 C 1112.2 1297.28 1092.05 1299.73 1070.25 1305.03 C 1069.01 1314.21 1072.84 1323.54 1075.36 1332.4 C 1087.7 1375.77 1103.89 1420.74 1101 1466.46 C 1100.65 1472.04 1099.67 1476.33 1100.47 1482 C 1103.16 1483.85 1105.81 1477.59 1107.68 1479.27 C 1121.46 1491.64 1136.83 1501.23 1156.55 1500.6 C 1203.12 1498.99 1250.6 1481.72 1291.55 1460.15 C 1302.82 1454.22 1316.76 1451.89 1315.28 1436.89 C 1311.2 1395.55 1303.6 1352.39 1270.22 1323.79 C 1248.12 1304.85 1211.92 1285.15 1181.54 1287.14 C 1167.03 1288.5 1150.86 1293.23 1135.77 1293.9 L 1134.38 1293.96 z"/>
<path transform="translate(0,0)" fill="rgb(167,207,196)" d="M 1715.44 493.232 C 1728.47 503.211 1746.75 513.116 1757.74 522.42 C 1831.97 585.28 1902.25 660.641 1941.52 750.921 C 1941.36 750.97 1939.38 751.671 1938.99 751.006 C 1934.62 743.567 1923.33 724.256 1920.29 717.825 C 1916.17 708.994 1911.02 700.565 1906.63 691.898 C 1904.01 686.742 1906.5 686.565 1900.61 683.165 L 1895.05 679.956 C 1894.97 677.238 1894.6 676.031 1895.59 673.464 C 1894.48 672.594 1893.05 672.705 1891.63 672.253 C 1884.42 669.955 1889.62 665.829 1886.14 659.906 L 1884.88 659.709 L 1884.6 661.133 C 1886.43 666.001 1887.09 672.446 1881.53 675.036 C 1874.11 666.199 1880.21 666.491 1866.16 665.075 C 1867.15 667.636 1867.37 668.787 1867.67 671.524 L 1865.13 671.634 C 1859.17 665.681 1842.43 641.018 1836.14 632.834 C 1817.36 608.839 1796.5 586.552 1773.8 566.234 C 1756.01 549.762 1723.41 526.99 1703.01 514.198 L 1705.82 512.641 C 1707.84 513.737 1712.45 515.176 1713.69 516.035 C 1727.32 525.465 1741.91 533.601 1753.32 545.811 C 1760.02 552.986 1759.77 549.935 1767.7 551.211 C 1769.56 554.526 1769.2 555.224 1772.01 556.744 L 1773.5 554.721 L 1774.72 555.965 C 1774.33 558.345 1774.33 558.435 1773.39 560.639 L 1775.19 564.643 C 1777.76 565.591 1776.78 566.31 1780.14 567.226 L 1782.51 564.49 C 1784.55 565.09 1783.67 564.743 1785.78 565.781 L 1787.36 566.571 L 1788.51 565.876 C 1781.29 557.031 1781.22 550.84 1772.76 542.277 C 1768.51 541.634 1769.38 546.778 1764.82 546.873 C 1764.56 543.837 1767.46 538.953 1767.34 538.221 C 1766.26 531.483 1753.81 530.528 1752.3 523.871 C 1749.82 512.934 1730.75 514.897 1725.49 506.913 C 1723.55 504.569 1721.64 500.545 1718.95 499.042 C 1715.12 496.91 1716.03 497.327 1715.44 493.232 z"/>
<path transform="translate(0,0)" fill="rgb(133,176,101)" d="M 932.766 170.411 C 1026.77 122.525 1149.98 101.682 1255.35 106.649 C 1327.86 110.067 1425.22 139.221 1483.22 184.572 C 1480.72 187.493 1480.81 187.799 1477.64 184.835 C 1468.88 176.645 1461.75 174.308 1450.64 170.956 C 1448.95 168.111 1447.24 164.573 1443.9 164.087 L 1442.46 165.949 C 1438.75 165.093 1433.46 157.712 1427.77 154.627 L 1424.38 157.446 L 1422.75 157.282 L 1420.69 153.297 L 1421.81 151.083 L 1418.85 150.128 C 1419.8 152.34 1419.63 151.27 1419.6 153.289 C 1415.06 154.137 1403.94 146.722 1398.71 144.194 C 1396.42 145.527 1396.29 145.732 1393.77 146.389 C 1388.68 142.788 1384.14 140.034 1377.98 142.266 L 1376.61 141.552 L 1376.4 137.832 C 1361.85 135.033 1348.79 135.319 1336.87 128.21 C 1327.69 122.737 1306.03 123.296 1295.15 118.273 C 1291.22 116.457 1284.18 117.926 1279.73 118.462 C 1277.26 117.32 1276.73 116.843 1274.84 114.888 C 1270.06 114.484 1269.01 114.347 1264.34 114.932 L 1264.41 116.967 L 1263.46 117.728 L 1262.53 116.995 L 1262.67 115.139 C 1255.91 113.904 1245.37 116.384 1238.58 115.868 C 1232.89 115.327 1226.14 112.707 1220.57 112.339 C 1206.62 111.419 1192.15 112.836 1178.33 111.804 C 1178.99 111.854 1174.28 109.86 1174.45 109.937 C 1163.21 113.622 1146.8 113.985 1134.89 115.588 C 1130.75 116.145 1124.38 115.776 1120.89 117.123 L 1119.63 120.349 C 1113.52 121.102 1111.05 117.305 1103.68 119.368 C 1086.81 125.116 1067.35 125.781 1050.43 130.153 C 1035.56 133.997 1019.5 139.728 1004.02 143.12 C 991.692 145.82 975.885 155.099 963.791 159.063 C 955.863 161.661 940.367 171.376 932.766 170.411 z"/>
<path transform="translate(0,0)" fill="rgb(94,129,126)" d="M 1829.87 1455.2 C 1828.74 1440.85 1832.63 1428.37 1834.85 1414.53 C 1840.69 1378.06 1841.96 1342.89 1840.61 1306.05 C 1840.31 1298.03 1840.39 1289.99 1839.76 1281.91 C 1838.68 1266.64 1837.48 1251.37 1836.18 1236.11 C 1835.32 1226.44 1833.63 1215.45 1833.77 1206.04 L 1834.47 1205.41 C 1835.18 1207.77 1835.98 1210.11 1836.36 1212.55 C 1838.34 1204.2 1832.57 1193.69 1833.11 1189.93 C 1836.09 1169.09 1831.01 1152.32 1826.86 1131.83 C 1823.62 1115.8 1800.65 1026.85 1830.32 1026.68 C 1840.65 1034.71 1855.99 1036.26 1868.73 1039.64 C 1882.19 1043.2 1901.24 1043.78 1915.08 1042.79 C 1926.61 1041.97 1943.51 1027.87 1951.45 1019.56 C 1954.88 1016.06 1957.28 1011.25 1962.12 1010.06 C 1956.58 1021.57 1935.4 1039.56 1921.85 1043.51 C 1892.61 1052.05 1857.4 1039.68 1829.09 1031.7 C 1813.46 1027.29 1818.83 1075.85 1819.94 1082.05 C 1830.42 1140.88 1844.26 1198.69 1847.45 1258.62 C 1849.42 1319.75 1847.57 1395.96 1829.87 1455.2 z"/>
<path transform="translate(0,0)" fill="rgb(133,176,101)" d="M 497.625 230.078 C 569.327 192.807 652.043 182.568 730.668 201.233 C 757.258 207.455 781.299 218.734 809.122 215.573 C 845.801 211.404 880.246 190.299 915.356 178.481 C 910.224 185.538 895.152 189.042 886.636 192.661 C 870.438 199.545 853.892 206.875 837.118 212.203 C 829.469 214.623 821.658 216.496 813.743 217.806 C 778.225 223.471 747.448 205.863 712.809 200.412 L 712.671 202.951 L 711.052 203.34 C 706.662 200.144 712.372 200.844 707.528 199.253 C 705.259 201.193 704.924 201.434 701.994 201.999 L 700.8 200.927 C 702.23 198.697 701.872 199.402 704.337 197.799 C 700.408 197.526 695.508 200.668 687.737 199.469 C 681.038 198.435 669.058 199.374 661.903 199.639 C 659.111 197.191 660.285 198.665 658.989 194.529 C 657.221 195.548 657.596 195.268 656.007 196.662 C 643.938 195.897 631.104 193.017 621.059 198.17 C 619.016 199.219 619.42 196.946 617.465 197.758 C 616.795 199.804 616.169 202.691 614.878 204.119 C 611.527 202.269 612.889 203.547 610.996 199.816 C 611.53 197.487 610.991 198.412 612.373 196.914 C 599.086 199.134 594.525 205.817 579.77 202.673 C 570.353 200.667 568.465 208.952 563.987 210.543 L 561.325 207.296 C 551.076 209.526 524.826 222.361 513.047 226.289 C 512.427 229.062 512.509 228.091 512.765 230.882 L 510.976 231.325 C 510.404 229.971 509.798 228.697 509.133 227.393 L 508.955 227.415 C 508.046 229.461 508.284 228.777 507.995 231.019 L 505.953 231.483 C 504.386 230.142 504.901 230.903 504.217 229.342 L 503.256 230.307 C 503.273 232.766 503.819 233.079 502.523 234.303 C 500.04 236.648 495.276 236.686 492.418 238.55 C 487.903 241.494 485.192 247.868 479.029 247.339 C 476.032 244.318 475.389 244.364 472.66 247.444 C 472.25 250.403 472.638 251.809 470.983 253.522 L 469.226 252.638 L 467.957 253.522 L 467.595 256.762 L 465.954 257.077 L 462.905 254.255 C 458.037 257.108 454.049 260.16 449.517 263.485 C 450.07 265.447 449.727 264.389 450.597 266.644 L 449.109 267.743 L 446.989 265.494 C 444.689 266.822 437.392 273.396 434.661 275.64 C 421.384 286.551 403.982 296.526 395.719 312.045 C 393.457 316.292 391.655 318.793 388.093 321.949 C 384.704 322.082 383.045 321.03 380.259 320.803 C 403.156 294.036 465.604 244.706 497.625 230.078 z"/>
<path transform="translate(0,0)" fill="rgb(167,207,196)" d="M 1107.21 1901.74 C 1097.9 1901.04 1085.22 1904.25 1075.92 1906.42 C 1058.63 1910.45 1042.28 1913.65 1024.69 1916.2 C 958.181 1925.7 890.679 1925.92 824.115 1916.84 L 824.507 1916.22 C 835.761 1915.9 845.264 1918.35 856.037 1919.02 C 867.112 1919.68 876.965 1920.22 888.197 1920.67 C 954.242 1923.34 1019.79 1918.48 1083.89 1902.15 C 1086.56 1901.47 1086.26 1897.81 1090.38 1896.43 L 1092.19 1897.45 C 1094.54 1896.15 1094.4 1896.43 1097.12 1896.11 C 1101.37 1885.3 1100.84 1894.68 1107.64 1891.15 C 1107.31 1889.24 1107.26 1888.86 1107.11 1886.85 C 1108.86 1887.38 1109.58 1889.12 1110.96 1890.98 C 1114.34 1892.36 1115.73 1886.97 1122.04 1885.54 L 1123.38 1886.56 L 1122.85 1887.96 L 1123.37 1888.5 C 1124.45 1886.66 1123.75 1887.44 1125.46 1886.17 L 1127.2 1887.39 C 1126.22 1890.45 1125.49 1890.21 1122.59 1892.66 C 1131.07 1891.4 1138.24 1888.32 1146.31 1886.46 C 1168.97 1881.21 1189.96 1872.8 1211.73 1864.82 C 1223.15 1860.63 1234.89 1857.55 1246.28 1853.03 L 1246.2 1851.9 L 1242.41 1851.23 C 1247.29 1849.21 1250.26 1852.52 1254.33 1849.38 L 1253.54 1850.33 L 1253.05 1847.98 L 1247.39 1845.54 C 1253.56 1842.96 1259.4 1842.3 1264.6 1840.11 C 1271.96 1837.01 1280.83 1830.75 1288.09 1826.89 C 1295.22 1823.1 1295.31 1821.16 1303.93 1824.02 C 1306.13 1825.89 1309.5 1820.7 1310.53 1820.64 C 1321.38 1819.95 1348.3 1808 1357.75 1812.64 C 1306.66 1820.22 1288.32 1839.88 1244.36 1856.23 C 1206 1870.5 1146 1894.27 1107.21 1901.74 z"/>
<path transform="translate(0,0)" fill="rgb(80,101,114)" d="M 1541.85 488.371 L 1538.1 486.515 L 1538.76 486.231 L 1538.77 485.284 C 1544.22 480.503 1547.91 483.757 1552.35 479.722 C 1551.52 477.226 1551.01 476.92 1549.36 474.807 C 1549.33 470.428 1551.29 463.771 1551.23 461.372 C 1551.1 455.126 1543.1 453.528 1554.44 447.337 C 1554.62 442.864 1553.78 444.498 1555.9 441.587 C 1559.24 440.355 1559 440.34 1562.53 440.586 L 1565.59 442.393 L 1568.95 440.469 L 1569.92 440.902 C 1572.2 447.133 1570.13 448.576 1576.57 453.061 C 1579.16 454.859 1584.52 457.222 1585.09 459.715 L 1583.21 462.123 L 1584.27 463.814 C 1586.74 463.989 1587.1 464.143 1589.48 463.652 C 1591.11 465.697 1591.12 466.029 1592.17 468.475 C 1597.41 471.737 1603.71 474.939 1609.68 476.497 C 1617.31 478.487 1649.24 481.311 1651.16 489.044 C 1630.17 482.268 1619.26 480.188 1597.78 477.535 C 1583.99 478.862 1579.77 477.709 1565.03 480.603 C 1556.54 482.851 1549.77 484.416 1541.85 488.371 z"/>
<path transform="translate(0,0)" fill="rgb(66,81,90)" d="M 1565.03 480.603 C 1564.14 479.644 1560.9 469.776 1560.8 468.367 C 1565.96 458.533 1592.38 471.921 1594.05 475.632 C 1589.52 474.957 1589.28 475.148 1584.77 476.5 C 1589.07 476.553 1593.78 476.26 1597.78 477.535 C 1583.99 478.862 1579.77 477.709 1565.03 480.603 z"/>
<path transform="translate(0,0)" fill="rgb(167,207,196)" d="M 1512.78 1788.31 C 1512.59 1785.34 1512.33 1784.37 1511.71 1781.51 L 1511.38 1781.59 C 1509.63 1784.41 1509.38 1784.77 1507.13 1787.2 C 1504.42 1787.43 1505.77 1787.49 1502.79 1785.56 C 1504.93 1782.23 1507.47 1779.9 1511.1 1778.4 C 1513.95 1779.13 1513.27 1779.32 1515.47 1782.39 C 1518.84 1780.68 1522.22 1778.64 1525.89 1778.08 L 1527.41 1780.61 C 1527.96 1777.48 1529.01 1775.75 1531.58 1773.99 L 1532.88 1774.47 L 1529.57 1780.84 L 1530.52 1781.79 C 1534.61 1781.1 1542.69 1774.92 1543.02 1774.92 C 1553.59 1775.17 1548.51 1768.61 1556.4 1762.76 L 1557.21 1763.52 C 1557.37 1766.48 1557.81 1766.5 1556.6 1769.14 C 1558.61 1766.26 1620.46 1738.88 1631.19 1727.47 C 1626.03 1724.54 1619.65 1726.73 1615.77 1723.88 C 1620.27 1719.85 1629.18 1725.2 1634.36 1725.44 C 1634.82 1725.46 1639.26 1720.13 1643.49 1718.86 L 1645.91 1720.49 C 1608.77 1747.5 1559.02 1773.83 1516.26 1790.74 C 1481.5 1803.97 1446.42 1814.35 1408.67 1812.02 C 1404.96 1810.67 1400.31 1809.76 1396.42 1809.02 C 1397.62 1807.73 1412.02 1809.4 1414.4 1809.55 C 1421.91 1810 1448.78 1808.52 1454.46 1804.61 C 1460.11 1800.7 1466.68 1793.96 1472.98 1791.52 C 1477.21 1789.88 1482.97 1790.37 1487.12 1791.98 L 1493.06 1794.31 C 1497.15 1793.24 1494.61 1793.94 1497.88 1791.2 C 1499.95 1789.3 1501.02 1787.15 1503.62 1790.64 C 1501.8 1788.2 1512.49 1788.3 1512.78 1788.31 z"/>
<path transform="translate(0,0)" fill="rgb(80,101,114)" d="M 168.16 813.163 L 169.644 814.243 C 173.926 814.143 174.184 814.197 178.097 812.66 C 180.781 814.301 181.46 816.379 182.952 819.203 L 184.754 819.865 L 185.917 818.513 L 187.039 819.514 C 185.974 826.559 183.752 838.853 181.386 845.461 L 180.545 845.929 L 179.23 844.272 C 173.643 847.232 169.097 854.443 159.397 851.442 C 156.124 850.429 153.195 847.293 151.896 844.07 L 151.65 843.899 C 150.354 828.427 152.317 819.171 168.16 813.163 z"/>
<path transform="translate(0,0)" fill="rgb(93,130,145)" d="M 137.507 830.827 C 139.584 825.121 158.597 803.551 162.714 796.302 C 172.635 778.837 189.573 750.289 196.314 731.961 C 209.256 696.775 214.299 653.725 224.473 617.216 C 227.273 607.168 229.292 596.135 233.223 586.659 C 235.158 598.535 202.943 715.073 198.712 734.319 C 197.071 741.782 172.386 784.06 167.246 794 C 165.229 797.72 162.312 800.296 159.556 806.382 L 157.537 807.408 L 157.141 809.439 L 161.813 809.026 L 162.27 810.079 C 157.798 813.374 157.511 810.578 154.64 814.379 L 155.24 816.416 C 160.455 814.514 161.249 812.531 166.621 811.065 L 168.16 813.163 C 152.317 819.171 150.354 828.427 151.65 843.899 L 150.78 845.746 C 147.085 845.329 149.528 836.69 146.291 834.181 C 146.105 836.797 145.917 836.908 144.942 839.393 L 144.214 839.325 C 140.684 826.039 145.839 833.295 145.496 825.189 C 141.793 828.109 141.53 832 137.671 835.743 L 137.507 830.827 z"/>
<path transform="translate(0,0)" fill="rgb(167,207,196)" d="M 97.0498 897.797 C 100.098 899.182 105.21 901.038 107.201 903.433 C 102.434 904.841 97.0805 897.686 96.9035 905.121 C 96.7915 910.352 90.804 916.135 91.8549 920.918 C 92.4141 923.463 92.5624 922.414 91.5981 924.11 C 86.3049 933.417 71.762 982.109 73.9429 989.685 C 77.3069 986.115 82.5087 979.29 87.564 979.219 C 91.3572 984.669 84.5157 993.746 81.3425 999.035 L 80.001 999.516 C 77.9967 997.418 79.219 998.049 76.0811 997.846 L 75.5998 999.096 C 79.0436 1003.28 82.5916 1008.45 80.0705 1013.97 C 77.5141 1013.14 77.7059 1013.07 77.3663 1010.39 C 75.577 1008.2 74.6646 1006.55 72.0191 1005.7 C 67.729 1014.49 71.83 1098.09 75.2703 1114.07 C 75.7536 1116.32 75.6845 1116.53 75.5166 1119.1 C 68.7985 1101.48 68.9038 1068.92 67.7291 1049.53 C 67.1446 1039.88 68.2942 1028.17 66.9643 1018.82 C 66.6713 1015.37 67.7078 1006.54 68.1665 1002.59 C 72.3951 966.158 83.6976 931.704 97.0498 897.797 z"/>
<path transform="translate(0,0)" fill="rgb(167,207,196)" d="M 1867.67 671.524 C 1875.93 670.992 1866.73 669.346 1875.49 668.663 C 1877.58 670.828 1877.16 669.559 1877.23 672.374 C 1875.29 673.931 1875.46 673.874 1873.02 674.334 L 1873.94 674.313 L 1874.39 673.479 L 1872.96 673.814 L 1874.58 674.117 L 1874.08 673.277 C 1872.61 680.822 1884.5 698.368 1888.58 705.404 L 1889.42 701.934 C 1890.96 705.731 1891.52 709.457 1893.31 713.385 C 1901.38 731.063 1917.8 762.668 1922.2 780.463 L 1920.81 783.012 C 1906.26 744.014 1887.59 706.678 1865.13 671.634 L 1867.67 671.524 z"/>
<path transform="translate(0,0)" fill="rgb(167,207,196)" d="M 1413.43 575.075 C 1422.68 566.483 1420.18 545.484 1430.24 536.848 C 1432.72 534.713 1437.84 526.364 1440.76 526.298 C 1446.64 526.166 1459.18 508.973 1463.05 507.724 L 1465.03 509.066 C 1462.4 513.025 1454.59 516.475 1452.98 520.172 C 1455.26 521.599 1454.65 520.976 1458.03 521.122 C 1452.01 524.791 1446.5 525.695 1440.15 528.579 C 1439.09 538.627 1427.47 537.189 1425.63 547.665 C 1427.2 546.457 1427.97 545.741 1429.4 544.363 L 1430.92 545.158 C 1431.23 547.398 1431.26 548.174 1431.25 550.442 L 1434.04 555.085 L 1433.58 556.48 L 1431.93 556.772 L 1428.53 553.221 L 1427.23 553.469 C 1425.77 556.756 1420.78 566.699 1421.26 569.481 C 1423 568.862 1422.32 569.003 1423.8 567.06 C 1425.96 570.256 1429.34 574.39 1429.77 578.007 C 1428.69 581.493 1426.68 586.813 1426.87 590.236 L 1430.16 592.45 L 1430.97 588.063 C 1433.1 588.491 1432.27 587.969 1433.57 589.477 L 1433.65 586.818 C 1432.8 586.861 1431.95 586.904 1431.1 586.947 C 1431.17 583.892 1431.03 583.745 1432 580.906 L 1433.65 579.852 L 1432.49 580.183 C 1431.08 576.604 1429.72 570.253 1434.06 568.373 C 1436.46 569.386 1437.96 569.607 1439.23 571.76 C 1437.88 573.524 1437.29 574.109 1435.7 575.672 C 1436.93 579.364 1438.5 581.073 1438.14 584.996 C 1435.89 585.907 1436.26 585.22 1435.58 586.698 C 1437.05 587.071 1438.09 587.317 1439.54 587.619 C 1442.1 593.162 1438.19 590.389 1441.07 595.009 C 1442.06 591.507 1442.2 588.937 1444.48 586.618 L 1446 586.907 C 1447.15 589.978 1447.08 590.384 1447.45 593.548 L 1449.27 593.331 L 1449.29 586.104 C 1452.09 586.518 1454.17 586.844 1457.02 586.975 L 1457.9 587.793 L 1455.02 592.889 C 1460.28 600.471 1466.29 609.736 1459.82 617.992 L 1460.9 618.709 L 1462.68 618.113 C 1463.8 613.56 1464.26 606.291 1466.32 603.47 C 1468.96 604.09 1470.34 606.787 1470.94 609.316 C 1466.93 615.463 1464.77 617.539 1465.4 625.206 C 1465.53 626.816 1465.28 627.287 1464.42 628.513 L 1462.31 628.584 L 1462.41 629.748 L 1466.23 629.903 C 1467.09 631.935 1467.38 645.174 1466.62 646.326 C 1459.04 657.763 1462.23 661.555 1469.06 673.166 L 1467.05 676.574 C 1468.74 680.151 1469.32 680.589 1473.56 680.747 C 1474.82 683.137 1474.92 683.841 1475.68 686.472 L 1477.09 686.486 L 1478.36 683.746 L 1480 683.997 L 1482.82 684.173 C 1491.34 728.482 1502.17 764.945 1515.43 807.883 C 1520.44 824.108 1540.93 882.421 1541.61 895.678 C 1545.21 906.705 1548.24 917.913 1551.41 929.026 C 1552.52 932.918 1555.76 947.027 1557.18 949.81 C 1571.89 1001.62 1586.81 1095.35 1587.25 1149.77 L 1586.23 1156.28 L 1585.44 1156.83 C 1583.81 1144.99 1583.82 1139.78 1576.45 1128.69 C 1570.77 1143 1572.58 1189.59 1569.11 1208.19 C 1565.85 1225.71 1560.07 1222.83 1556.74 1240.26 C 1555.32 1247.76 1551.87 1268.71 1547.18 1272.97 L 1545.91 1278.13 L 1545.83 1278.12 C 1545.15 1275.63 1545.17 1273.39 1545.03 1270.81 C 1544.98 1264.72 1547.48 1245.98 1548.25 1238.5 C 1550.02 1221.28 1551.11 1203.99 1551.51 1186.68 C 1552.74 1126.01 1543.3 1060.7 1532.76 1000.85 C 1530.54 988.256 1526.01 962.091 1520.22 951.389 C 1516.22 937.752 1510.8 902.194 1502.57 890.16 C 1499.12 884.546 1492.56 865.833 1490.07 858.907 C 1478.75 829.195 1470.32 797.777 1459.02 768.13 C 1449.44 742.979 1435.2 718.1 1426.79 692.021 C 1423.63 682.241 1419.44 672.691 1416.36 662.719 C 1411.66 647.738 1408.82 632.237 1407.89 616.564 C 1405.05 604.503 1408.07 589.305 1408.11 575.739 C 1407.61 566.871 1410.05 545.73 1417.76 540.753 C 1418.43 541.129 1421.34 542.837 1421.85 542.976 C 1420.61 552.206 1415.61 564.206 1413.43 575.075 z"/>
<path transform="translate(0,0)" fill="rgb(94,129,126)" d="M 1408.11 575.739 C 1407.61 566.871 1410.05 545.73 1417.76 540.753 C 1418.43 541.129 1421.34 542.837 1421.85 542.976 C 1420.61 552.206 1415.61 564.206 1413.43 575.075 C 1413.97 581.612 1412.12 587.188 1411.52 593.804 C 1411.08 598.722 1413.63 611.366 1412.57 614.384 C 1410.17 608.126 1409.56 606.164 1408.25 599.619 L 1407.89 616.564 C 1405.05 604.503 1408.07 589.305 1408.11 575.739 z"/>
<path transform="translate(0,0)" fill="rgb(167,207,196)" d="M 286.136 858.308 L 287.34 857.315 C 300.026 862.3 309.305 881.901 317.365 889.116 L 318.076 888.371 C 320.941 887.574 319.468 887.78 323.009 889.151 C 324.519 891.824 323.298 894.551 324.105 897.272 C 325.84 903.124 332.066 907.044 336.832 910.357 L 337.636 909.961 L 337.86 910.682 C 338.147 907.843 338.403 907.507 337.682 904.809 L 335.938 904.065 C 335.632 899.79 339.212 893.605 344.197 893.639 L 342.435 898.46 C 344.053 900.99 343.002 900.371 345.255 901.381 C 345.246 900.205 345.683 897.265 345.838 895.95 C 348.633 892.99 348.286 888.953 350.294 884.59 L 348.524 884.42 C 346.673 881.304 344.45 877.161 343.665 873.637 C 348.729 861.297 345.002 863.46 337.01 855.199 C 335.58 850.213 333.798 846.254 331.861 841.608 C 328.613 833.817 308.962 813.113 313.198 805.242 C 353.028 858.93 369.193 917.324 398.436 976.078 C 402.051 983.341 404.602 994.721 409.783 1000.42 L 410.467 1001.19 C 424.862 1013.31 434.321 1059.15 447.407 1072.12 C 454.759 1080.52 461.929 1090.99 469.127 1099.84 C 489.923 1125.4 511.682 1152.85 538.581 1172.11 C 553.269 1182.64 578.286 1196.02 596.96 1192.51 C 607.502 1190.53 613.44 1184.9 619.25 1176.69 C 618.069 1161.28 618.821 1144.73 619.407 1129.21 C 620.16 1109.27 619.634 1083.7 621.958 1063.97 C 623.154 1062.8 624.615 1058.07 625.337 1056.15 L 625.068 1057.8 C 625.784 1058.6 623.639 1076.42 623.608 1079.02 C 623.223 1111.31 618.789 1144.98 623.525 1176.68 C 625.601 1177.81 625.483 1177.73 627.004 1179.54 C 625.978 1186.13 617.623 1186.24 613.225 1193.39 C 634.565 1194.95 627.069 1159.82 627.177 1146.47 C 624.381 1143.96 624.901 1145.11 623.693 1141.97 C 626.261 1141.9 625.046 1142.07 627.347 1141.51 C 626.678 1136.64 625.757 1133.23 627.919 1128.87 L 629.885 1129.52 C 631.374 1127.83 632.837 1126.11 634.275 1124.37 C 639.932 1122.78 641.279 1119.01 644.4 1113.99 L 645.374 1114.41 L 645.944 1119.8 C 655.529 1121.04 659.78 1121.21 661.285 1131.64 L 663.175 1132.35 L 664.151 1131.52 C 664.117 1128.78 663.93 1128.27 664.699 1125.69 L 666.113 1126.48 C 666.907 1130.66 664.889 1134.38 664.601 1139.44 C 665.762 1138.09 665.062 1138.86 666.777 1137.08 L 667.647 1139.49 L 666.663 1141.15 L 662.396 1141.98 L 664.341 1145.17 C 667.572 1145.44 667.438 1146.32 670.316 1146.67 C 671.212 1145.91 672.108 1145.15 673.004 1144.39 C 675.897 1140.9 674.569 1120.84 672.61 1117.44 C 673.531 1110.73 669.32 1100.94 668.33 1093.92 C 666.651 1082 665.934 1070.83 667.211 1058.82 C 668.73 1044.54 668.965 1030.05 669.013 1015.7 C 669.779 1014.82 670.544 1013.95 671.31 1013.08 C 671.766 1009.85 671.193 1010.88 672.925 1008.47 C 673.784 1011.14 673.198 1010.86 671.838 1014.22 C 671.761 1017.9 672.522 1023.51 672.218 1026.47 C 669.094 1057.02 670.949 1085.61 675.793 1115.81 C 678.063 1129.95 677.002 1143.95 683.92 1157.74 C 690.512 1173.45 699.247 1187.3 707.845 1202 C 713.629 1211.72 724.739 1233.12 731.936 1239.77 C 754.331 1260.46 779.42 1269.59 807.517 1278.08 L 799.664 1278.67 L 798.204 1278.31 C 791.476 1276.63 766.12 1265.2 762.936 1265.87 C 762.479 1265.97 762.019 1266.05 761.563 1266.15 C 761.213 1266.23 760.867 1266.32 760.52 1266.4 C 753.974 1262.4 726.093 1242.8 722.647 1236.4 L 723.74 1233.98 C 718.044 1224.85 708.405 1211.74 704.562 1202.63 C 701.525 1201.65 700.734 1202.66 698.562 1204.89 C 695.014 1205.33 691.068 1205.23 688.535 1207.07 C 690.658 1211.93 693.518 1211.89 693.114 1215.15 L 691.186 1217.36 C 688.556 1215.97 689.405 1216.39 687.323 1213.92 C 684.961 1214.88 686.07 1214.21 684.452 1217.01 L 686.181 1222.94 L 685.318 1224.5 L 682.749 1224.71 C 681.599 1222.92 682.089 1223.89 681.311 1221.79 L 677.919 1222.08 C 676.185 1226.52 673.24 1231.24 674.553 1234.72 L 676.601 1235.85 C 674.358 1238.33 675.659 1237.87 672.929 1238.09 L 671.374 1235.87 C 668.985 1238.89 670.431 1238.1 667.371 1239.11 C 667.584 1240.75 667.318 1239.84 668.515 1241.7 C 663.715 1243.66 657.927 1237.94 653.05 1243.06 L 654.361 1245.51 C 652.073 1247.74 653.188 1247.51 650.803 1247.84 L 649.511 1244.13 C 645.156 1247.09 648.894 1247.73 645.115 1250.34 C 641.278 1247.37 639.678 1247.76 634.823 1247.44 L 632.881 1245.56 L 631.513 1248.74 L 630.15 1249.22 C 629.685 1247.76 629.745 1247.51 628.657 1246.39 C 622.988 1249.22 625.501 1253.16 621.229 1253.62 C 619.648 1253.79 617.929 1254.77 616.537 1255.59 L 617.389 1257.53 L 615.93 1258.64 C 613.926 1256.84 614.65 1257.58 613.617 1254.74 C 601.267 1252.33 593.058 1259.93 587.937 1255.6 C 586.624 1251.31 586.873 1247.91 584.56 1245.63 C 583.949 1247.03 583.326 1248.43 582.693 1249.83 L 581.652 1249.93 C 580.082 1251.28 580.433 1250.55 580.046 1251.74 C 596.958 1264.26 629.655 1288.35 647.769 1302.55 C 647.934 1303.19 648.1 1303.82 648.265 1304.46 L 647.632 1305.67 C 578.963 1255.75 493.836 1196.46 453.65 1120.1 L 451.602 1114.62 C 443.92 1100.81 434.431 1090.44 423.979 1078.78 C 415.212 1069 407.785 1063.92 405.603 1050.72 C 402.649 1041.88 386.912 1015.41 381.495 1005.14 C 358.35 961.213 335.434 917.56 304.641 878.333 C 298.668 870.724 291.391 864.866 286.136 858.308 z"/>
<path transform="translate(0,0)" fill="url(#Gradient2)" d="M 355.61 1233.31 C 357.236 1231.32 354.058 1231.61 357.131 1226.02 C 362.571 1233.96 365.267 1241.94 370.114 1250.08 C 372.358 1262.47 410.347 1315.12 419.437 1326.76 L 423.283 1331.28 C 486.832 1405.93 539.985 1462.88 624.244 1515.58 C 661.899 1539.64 701.174 1561.07 741.787 1579.71 C 754.929 1585.59 801.567 1602.03 808.612 1609.83 C 815.604 1618.6 857.156 1629.16 868.852 1627.9 C 886.697 1625.96 898.415 1635.97 914.072 1634.09 C 970.302 1646.83 1023.8 1647.59 1080.78 1642.05 C 1082.79 1642.16 1095.67 1642.5 1096.28 1642.8 L 1094.94 1643.14 L 1094.21 1642.57 C 1092.15 1644.12 1087.2 1644.51 1084.43 1644.96 L 1082.89 1647.63 C 1079.16 1647.6 1082.04 1647.27 1079.08 1646.73 C 1072.54 1645.53 1061.51 1648.11 1054.44 1648.32 C 1035.09 1648.89 1015.68 1648.49 996.439 1649.04 L 997.497 1649.85 C 996.136 1653.4 996.139 1651.7 997.15 1655.1 C 999.497 1655.27 1001.85 1655.41 1004.2 1655.5 C 1005.85 1657.61 1005.55 1658.28 1005.85 1661.06 L 1006.52 1661.46 C 1007.16 1659.74 1007.83 1658.02 1008.51 1656.3 L 1009.69 1655.97 L 1010.69 1656.71 C 1016.49 1652.86 1011.15 1657.06 1017.89 1654.42 L 1019.16 1656.01 C 1016.68 1660.94 1014.29 1661.55 1013.76 1665.81 C 1024.16 1669.82 1057.16 1659.67 1072.68 1666.76 C 1077.62 1663.94 1083.2 1662.55 1088.65 1661.05 L 1089.82 1661.54 C 1084.13 1687.23 979.773 1673.92 957.798 1677.01 C 927.967 1677.33 833.835 1654.43 808.312 1639.74 C 816.917 1645.23 726.954 1610.73 736.232 1612.35 C 723.755 1604.96 703.824 1595.93 689.394 1587.76 C 619.068 1547.92 551.66 1501.47 492.747 1445.8 C 475.249 1429.34 458.655 1411.94 443.039 1393.68 C 430.438 1378.88 418.628 1360.01 404.501 1349.09 C 393.019 1337.91 376.86 1311.9 367.598 1298.48 C 360.351 1287.48 353.272 1276.38 346.362 1265.17 C 345.901 1262 346.418 1259.43 346.797 1256.25 L 349.308 1255.7 C 350.323 1254.14 349.887 1254.88 349.968 1252.61 C 352.46 1248.93 353.676 1248.26 358.099 1246.93 L 360.529 1250.44 C 361.234 1245.26 353.834 1242.73 355.61 1233.31 z"/>
<path transform="translate(0,0)" fill="rgb(96,147,161)" d="M 405.603 1050.72 C 407.785 1063.92 415.212 1069 423.979 1078.78 C 434.431 1090.44 443.92 1100.81 451.602 1114.62 L 453.65 1120.1 L 452.142 1121.03 C 449.61 1132.53 448.937 1158.73 447.593 1172.19 C 443.299 1213.17 437.504 1253.97 430.218 1294.51 C 428.935 1301.74 424.969 1325.96 423.283 1331.28 L 419.437 1326.76 C 410.347 1315.12 372.358 1262.47 370.114 1250.08 C 377.478 1245.12 377.488 1225.76 379.243 1216.89 C 388.807 1168.52 392.137 1119.34 399.41 1070.65 C 400.362 1064.28 403.781 1058.32 405.361 1051.76 L 405.603 1050.72 z"/>
<path transform="translate(0,0)" fill="rgb(93,130,145)" d="M 419.437 1326.76 C 423.775 1311.63 419.336 1291.8 421.249 1286.25 L 423.458 1286.27 L 424.486 1289.84 L 425.492 1288.48 C 424.521 1285.1 424.359 1286.24 424.895 1283.11 L 426.937 1285.38 L 427.745 1284.64 C 427.518 1280.96 427.051 1278.97 428.601 1275.48 L 425.911 1275.32 C 426.638 1271.5 428.041 1268.59 428.722 1264.57 C 434.307 1232.18 437.817 1199.5 442.917 1167.09 C 445.361 1151.56 443.159 1127.47 451.602 1114.62 L 453.65 1120.1 L 452.142 1121.03 C 449.61 1132.53 448.937 1158.73 447.593 1172.19 C 443.299 1213.17 437.504 1253.97 430.218 1294.51 C 428.935 1301.74 424.969 1325.96 423.283 1331.28 L 419.437 1326.76 z"/>
<path transform="translate(0,0)" fill="rgb(167,207,196)" d="M 1054.91 1266.37 C 1060.57 1263.84 1077.35 1258.65 1083.96 1256.54 C 1103.75 1250.21 1116.45 1244.8 1134.79 1235.5 L 1135.15 1237.14 C 1119.37 1253.1 1069.69 1259.18 1063.96 1270.59 C 1066.09 1272.36 1067.23 1273.07 1068.71 1275.47 L 1070.29 1273.52 L 1071.91 1274.1 C 1072.05 1275.76 1072.17 1277.43 1072.25 1279.09 C 1076.6 1282.56 1088.08 1279.67 1084.97 1294.74 L 1085.63 1296.49 C 1087.29 1295.28 1088.93 1294.06 1090.56 1292.82 L 1092.87 1293.49 C 1092.96 1294.77 1093.02 1295.79 1093.06 1297.08 C 1105.72 1295.55 1117.68 1293.05 1130.21 1291.48 C 1133.08 1286.95 1131.89 1287.4 1136.03 1285.24 L 1137.23 1285.45 C 1136.44 1288.28 1135.62 1288.22 1133.04 1290.57 C 1136.11 1291.37 1139 1291.08 1142.19 1291.02 L 1142.17 1291.62 C 1138.99 1292.15 1137.38 1292.72 1134.38 1293.96 C 1112.2 1297.28 1092.05 1299.73 1070.25 1305.03 C 1051.1 1305.15 1038.11 1316.68 1025.48 1318.53 C 1023.08 1314.43 1024.24 1315.09 1020.58 1313.14 C 1012.8 1313.04 991.042 1317.21 982.19 1318.62 C 962.687 1321.65 943.141 1324.4 923.556 1326.86 C 907.103 1328.81 890.601 1330.33 874.069 1331.44 C 855.747 1332.6 808.223 1334.45 792.073 1340.45 L 788.247 1339.78 L 788.452 1338.88 C 798.111 1334.3 823.692 1332.1 835.322 1330.72 C 827.802 1327.69 827.807 1329.01 823.573 1323.37 C 823.203 1324.94 822.862 1326.51 822.548 1328.1 C 818.539 1323.07 822.933 1314.67 821.37 1307.68 C 818.22 1309.26 818.401 1309.32 814.943 1309.68 C 811.692 1306.82 815.126 1305.74 811.59 1301.35 C 811.827 1304.61 812.402 1303.58 811.009 1305.49 L 809.006 1304.99 L 808.928 1300.62 L 807.479 1299.38 L 807.423 1301.47 L 806.516 1302.24 L 805.598 1301.5 L 805.789 1299.65 C 802.946 1298.79 803.268 1299.13 800.858 1297.62 L 802.39 1294.58 C 798.558 1295.2 794.828 1296.39 791.581 1294.69 C 788.473 1289.69 788.995 1284.43 792.457 1279.63 C 796.255 1280.57 794.789 1283.27 799.152 1285.32 C 799.426 1282.99 799.213 1283.72 800.122 1281.53 C 803.371 1284.1 799.912 1285.08 803.433 1287.5 C 803.809 1286.87 805.831 1280.75 805.958 1279.93 L 799.664 1278.67 L 807.517 1278.08 L 808.503 1278.27 C 820.606 1280.61 831.77 1285.28 844.095 1286.92 C 892.638 1293.36 940.13 1283.19 988.528 1281.32 C 989.579 1281.28 991.145 1280.28 992.015 1279.76 C 995.214 1271.4 1047.78 1269.71 1054.91 1266.37 z"/>
<path transform="translate(0,0)" fill="url(#Gradient1)" d="M 1176.67 453.382 C 1180.81 451.274 1182.92 449.834 1187.6 449.293 C 1193.42 453.101 1210.77 454.994 1218.38 456.893 C 1278.07 471.799 1337 493.662 1391.68 521.924 C 1399.7 526.07 1410.27 531.433 1416.8 537.708 C 1417.5 539.318 1417.59 539.078 1417.76 540.753 C 1410.05 545.73 1407.61 566.871 1408.11 575.739 C 1400.39 572.954 1375.15 558.63 1365.94 553.994 C 1342.35 542.244 1318.17 531.702 1293.51 522.408 C 1256.81 508.322 1216.24 497.01 1177.49 490.088 C 1160.07 486.977 1140.26 487.366 1123.11 483.606 L 1121.35 483.21 C 1126.66 477.38 1167.38 457.557 1176.67 453.382 z"/>
<path transform="translate(0,0)" fill="rgb(96,147,161)" d="M 1176.67 453.382 C 1180.81 451.274 1182.92 449.834 1187.6 449.293 C 1193.42 453.101 1210.77 454.994 1218.38 456.893 C 1278.07 471.799 1337 493.662 1391.68 521.924 C 1399.7 526.07 1410.27 531.433 1416.8 537.708 C 1398.72 537.786 1350.41 505.504 1323.23 500.731 L 1323.27 499.242 C 1321.52 497.49 1321.68 497.398 1319.26 497.267 C 1318.36 497.218 1317.45 497.133 1316.54 497.124 C 1308.28 497.04 1283.26 485.516 1273.34 482.678 C 1257.75 478.218 1186.63 463.895 1179.17 458.573 C 1180.6 456.78 1181.85 457.272 1184.97 456.861 L 1184.79 454.725 C 1186.43 455.307 1187.34 455.581 1189.03 455.99 L 1189.34 455.077 C 1185.04 453.99 1181.07 453.68 1176.67 453.382 z"/>
<path transform="translate(0,0)" fill="rgb(80,101,114)" d="M 245.622 682.073 C 245.71 683.057 245.807 683.803 245.801 684.763 C 245.739 690.153 243.534 695.297 239.673 699.059 C 232.965 705.689 235.11 717.938 224.919 716.392 C 217.754 711.258 215.063 696.464 212.096 688.389 C 213.347 681.475 225.543 634.021 228.091 630.787 C 230.98 629.541 230.927 629.279 233.98 629.556 C 232.285 633.765 231.822 633.076 232.416 636.904 C 236.319 633.596 234.145 631.527 239.193 628.75 L 240.118 629.217 C 241.104 632.244 240.952 630.624 239.688 634.253 C 240.324 637.528 239.531 636.182 242.354 638.295 L 243.746 636.132 L 244.438 636.436 C 244.58 639.645 244.576 642.794 244.593 646.003 L 245.93 646.791 C 246.307 649.283 245.365 676.047 245.622 682.073 z"/>
<path transform="translate(0,0)" fill="rgb(133,176,101)" d="M 978.947 575.555 L 984.318 575.541 C 983.551 578.466 968.2 591.549 965.257 594.664 C 936.352 625.254 903.528 651.492 868.102 674.158 C 864.01 676.776 854.448 680.401 851.564 683.328 L 852.185 686.762 C 848.305 689.264 845.406 686.434 839.641 688.068 C 837.271 690.153 837.404 690.602 836.403 693.566 C 832.23 696.236 832.377 694.342 829.426 695.46 L 829.074 700.144 C 819.256 707.44 811.848 717.299 801.932 724.972 C 795.24 723.877 795.485 723.846 789.423 726.54 C 783.11 729.345 775.492 731.586 768.86 733.791 C 764.576 731.3 762.836 727.402 759.79 727.09 C 753.694 726.467 753.599 726.662 749.579 722.946 C 736.623 710.967 730.915 706.814 727.764 688.502 C 728.579 686.267 728.194 686.708 729.579 684.901 C 733.688 704.138 743.523 723.203 766.261 722.931 C 787.336 722.68 805.87 706.29 823.029 696.008 C 838.926 686.483 855.668 677.904 871.192 667.7 C 912.542 641.461 944.576 610.275 978.947 575.555 z"/>
<path transform="translate(0,0)" fill="rgb(167,207,196)" d="M 1049.17 557.004 L 1047.94 554.831 C 1051.66 541.693 1079.13 513.829 1090.3 504.056 C 1092.53 502.107 1097.44 499.527 1099.81 497.408 C 1104.03 493.574 1107.32 489.06 1112.21 485.987 C 1125.36 477.72 1138.13 468.817 1152.79 463.372 C 1156.57 461.967 1154.81 458.049 1157.24 456.866 C 1160.64 455.214 1162.61 456.848 1164.92 453.445 C 1158.93 452.652 1155.19 459.19 1147.04 461.769 L 1146.97 461.07 C 1161.72 446.767 1189.23 441.557 1207.92 432.746 C 1209.31 432.092 1210.38 432.265 1211.6 432.922 C 1208.91 434.859 1208.2 435.017 1206.2 437.605 L 1210.07 438.82 C 1212.26 438.208 1218.03 437.026 1219.1 435.673 L 1214.25 435.664 L 1214.88 434.798 C 1219.89 432.517 1223.59 435.33 1227.65 434.147 C 1265.47 423.124 1304.15 421.253 1343.34 418.598 C 1369.63 416.816 1401.61 415.494 1427.43 421.241 L 1418.74 421.964 C 1340.63 415.384 1262.01 424.681 1187.6 449.293 C 1182.92 449.834 1180.81 451.274 1176.67 453.382 C 1167.38 457.557 1126.66 477.38 1121.35 483.21 C 1097.03 499.018 1063.03 531.933 1049.17 557.004 z"/>
<path transform="translate(0,0)" fill="rgb(94,129,126)" d="M 1218.67 1089 C 1226.06 1097.67 1229.65 1107.6 1235.84 1116.66 C 1250.59 1138.23 1268.81 1157.47 1287.15 1175.98 C 1291.67 1180.54 1304.75 1190.08 1307.3 1194.18 L 1306.34 1195.09 C 1297.04 1191.02 1298.17 1184.19 1284.1 1181.88 C 1276.42 1180.62 1258.39 1162.24 1251.17 1156.85 C 1249.74 1155.78 1244.06 1144.33 1241.98 1142.37 C 1233.81 1135.52 1230.18 1136.59 1225.04 1126.76 C 1226.22 1126.35 1227.29 1126.02 1228.47 1125.65 C 1229.23 1123.06 1228.85 1122.66 1228.5 1119.84 L 1230.44 1117.96 C 1231.45 1118.04 1232.65 1118.22 1233.67 1118.35 C 1227.5 1114 1215.5 1101.03 1210.12 1095.12 C 1212.37 1095.51 1212.76 1094.78 1215.29 1093.63 C 1216.56 1091.79 1217.64 1090.86 1218.67 1089 z"/>
<path transform="translate(0,0)" fill="rgb(93,130,145)" d="M 245.93 646.791 C 246.055 639.128 245.281 631.11 244.679 623.437 C 248.135 616.474 248.562 617.17 244.216 611.485 L 245.107 610.444 L 247.06 611.208 C 248.978 613.498 251.793 615.935 251.844 618.352 L 248.764 620.671 C 248.492 622.701 248.361 621.669 249.37 623.733 C 251.251 622.639 250.314 622.806 252.101 622.91 L 252.587 629.252 L 253.246 629.005 C 254.2 625.668 253.971 618.467 253.211 614.92 C 251.715 607.933 253.347 606.304 253.941 600.468 L 254.113 598.654 L 255.008 598.329 L 256.632 600.564 C 256.947 598.578 256.998 598.322 257.914 596.703 C 256.102 592.708 253.449 589.115 256.345 585.366 C 257.213 588.208 258.88 588.991 259.219 592.161 C 259.672 596.404 260.558 597.252 263.715 599.306 C 255.822 659.173 234.356 707.628 277.585 761.778 C 278.7 763.175 288.791 775.806 289.137 776.414 C 287.58 780.338 289.75 781.453 292.062 784.467 L 290.877 785.245 L 288.415 784.021 C 284.859 775.158 281.146 774.639 276.272 767.351 C 260.066 743.122 247.236 715.437 248.911 685.64 C 249.088 682.493 250.265 664.439 249.841 662.571 L 249.568 661.227 L 249.332 660.14 C 250.605 657.684 251.79 656.098 251.668 653.379 L 249.057 652.884 L 248.516 648.332 C 247.382 649.798 247.425 649.886 247.756 652.021 C 249.04 660.314 247.71 673.933 245.622 682.073 C 245.365 676.047 246.307 649.283 245.93 646.791 z"/>
<path transform="translate(0,0)" fill="rgb(167,207,196)" d="M 355.61 1233.31 C 354.323 1232.2 352.986 1230.75 351.776 1229.52 L 353.993 1227.99 L 352.532 1226.96 C 350.268 1226.83 349.095 1226.78 346.878 1226.36 C 346.864 1221.91 347.293 1218.97 344.71 1215.56 L 343.673 1217.39 L 342.587 1217.38 C 341.931 1216.09 341.288 1214.78 340.657 1213.47 L 339.988 1216.01 C 337.916 1215.33 336.648 1215.04 334.52 1214.53 C 334.972 1213.88 338.44 1208.94 338.439 1208.93 C 336.494 1203.68 324.653 1191.13 326.742 1186.51 C 326.845 1186.04 326.947 1185.57 327.05 1185.1 C 324.798 1183.22 326.056 1183.94 322.946 1183.51 C 321.217 1181.8 321.546 1182.78 321.52 1180.77 L 322.245 1181.11 L 323.617 1180.2 L 323.315 1181.13 C 323.849 1175.77 319.729 1164.69 318.569 1159.01 C 314.643 1139.76 296.312 1107.3 295.008 1089.66 L 292.397 1091.68 L 291.252 1091.53 C 291.786 1085.25 292.722 1081.11 288.862 1075.6 C 286.94 1072.85 285.083 1069.65 286.426 1066.48 L 288.828 1067.01 C 308.526 1124.74 326.522 1172.41 357.131 1226.02 C 354.058 1231.61 357.236 1231.32 355.61 1233.31 z"/>
<path transform="translate(0,0)" fill="rgb(167,207,196)" d="M 264.339 1098.93 L 265.481 1097.25 C 267.609 1099.53 270.831 1108.88 272.439 1112.55 L 292.529 1158.25 C 298.434 1171.98 300.505 1184.08 313.906 1191.64 L 313.632 1192.83 C 313.04 1195.44 312.318 1197.07 313.159 1199.52 L 315.09 1200.51 C 317.327 1199.56 319.276 1198.72 321.481 1197.67 L 322.954 1198.49 L 322.586 1199.9 C 317.612 1219.49 332.513 1207.68 329.962 1221.96 L 331.245 1223.76 C 332.295 1220.25 332.35 1219.2 332.692 1215.67 L 333.161 1217.08 C 336.127 1219.45 337.106 1220.56 338.528 1224.08 C 336.416 1229.47 331.122 1225.86 331.904 1230.7 C 333.73 1232.52 334.722 1233.45 337.079 1234.68 C 341.972 1237.25 347.685 1251.06 346.797 1256.25 C 346.418 1259.43 345.901 1262 346.362 1265.17 C 317.797 1217.48 282.574 1151.85 264.339 1098.93 z"/>
<path transform="translate(0,0)" fill="rgb(167,207,196)" d="M 1480 683.997 C 1478.82 678.259 1478.18 671.751 1476.99 666.126 C 1475.15 657.409 1478.47 659.255 1478.98 652.112 L 1477.47 650.461 C 1476.09 651.353 1475.78 653.434 1475.06 655.388 C 1474.32 652.313 1473.82 651.355 1474.71 648.298 C 1476.43 647.882 1475.55 647.91 1477.36 648.267 C 1476.48 633.927 1476.41 618.629 1475.25 604.409 C 1474.97 600.929 1458.41 583.856 1454.72 579.384 L 1454.99 577.908 C 1457.54 577.56 1457.39 577.652 1459.83 576.879 C 1459.8 575.072 1459.71 574.918 1460.03 573.157 L 1463.48 573.449 C 1465.3 571.228 1466.59 569.782 1468.57 567.7 C 1469.96 568.969 1470.05 570.766 1470.68 572.941 C 1472.78 572.625 1471.79 573.062 1473.53 571.392 L 1473.53 565.962 C 1475.34 563.462 1475.72 563.425 1478.08 561.452 C 1478.43 562.56 1478.51 563.597 1478.59 564.75 C 1477.96 565.733 1484.41 547.516 1484.28 548.106 C 1486.49 546.24 1486.34 546.196 1489.03 545.277 L 1489.39 546.485 C 1476.74 557.803 1475.92 616.545 1479.1 632.551 C 1479.86 649.408 1480.45 667.555 1482.82 684.173 L 1480 683.997 z"/>
<path transform="translate(0,0)" fill="rgb(167,207,196)" d="M 89.9758 1025.39 C 85.476 1041.12 88.4265 1091.76 88.3889 1108.84 L 87.8305 1108.19 C 86.4589 1101.8 84.1683 1091.51 84.6839 1085.45 C 85.5554 1075.21 88.0784 1070.55 83.1458 1060.56 C 82.5873 1059.43 86.1541 1054.34 86.5567 1052.4 C 87.7218 1046.79 85.8268 1040.48 86.4105 1034.66 C 86.1032 1030.67 87.7909 1024.53 87.2676 1020.75 C 86.5238 1015.37 79.8308 1012.78 83.3342 1006.85 C 85.8656 1008.93 84.5327 1008.63 87.2176 1008.78 C 94.8367 999.926 89.3186 987.813 91.0607 979.967 L 93.6087 978.386 C 95.1377 974.985 95.5002 968.534 95.9836 964.51 L 96.1828 966.125 C 99.1665 951.032 109.981 928.932 117.943 915.66 C 121.224 910.192 130.919 889.693 138.538 891.204 C 133.272 900.888 125.948 908.196 120.488 917.611 C 100.741 951.662 94.5033 986.884 89.9758 1025.39 z"/>
<path transform="translate(0,0)" fill="rgb(167,207,196)" d="M 1545.43 282.871 C 1549.57 283.283 1555.45 282.206 1556.71 286.796 L 1553.42 290.199 L 1553.7 291.702 L 1557.57 293.357 C 1561.69 291.531 1561.32 289.821 1565 285.994 C 1565.84 290.446 1565.84 290.851 1565.49 295.414 L 1562.6 294.626 L 1562.1 295.702 C 1563.15 297.837 1562.6 297.161 1564.62 298.482 C 1567.16 298.025 1567.49 297.806 1570.01 298.115 C 1570.46 300.525 1568.93 302.178 1567.54 304.968 L 1570.16 303.501 L 1571.18 303.859 L 1571.3 306.805 C 1570.61 308.215 1570.95 309.16 1571 310.776 C 1568.51 310.616 1569.34 310.555 1566.79 311.115 C 1566.47 316.821 1564.8 319.716 1558.97 320.059 C 1556.06 317.881 1555.61 316.1 1554.05 312.793 L 1553.44 311.481 C 1551.29 311.493 1550.96 311.503 1548.86 311.103 C 1548.86 308.283 1551.28 300.04 1552.11 296.883 C 1546.28 293.622 1543.18 289.763 1545.43 282.871 z"/>
<path transform="translate(0,0)" fill="rgb(96,147,161)" d="M 1278.23 1742.75 C 1277.65 1742.43 1293.16 1746.44 1294.38 1746.78 L 1292.7 1744.66 C 1295.62 1743.03 1301.44 1741.81 1303.25 1745.52 C 1300.87 1747.66 1300.65 1748.28 1299.1 1750.97 L 1298.62 1751.8 C 1288.75 1755.46 1277.95 1762.37 1270.48 1770.02 C 1268.34 1772.21 1268.54 1774.99 1268.54 1777.98 L 1268.8 1778.9 L 1267.29 1776.47 C 1267.03 1772.23 1266.87 1768.5 1268.93 1764.62 C 1265.24 1765.34 1267.27 1770.92 1259.97 1773.28 L 1258.34 1772.35 L 1257.87 1769.1 C 1263.29 1766.88 1267.61 1756.76 1270.73 1751.26 C 1274.22 1750.3 1275.25 1750.35 1277.5 1747.51 C 1274.99 1748.55 1274.72 1748.82 1272.06 1749.13 C 1273.37 1746.15 1275.64 1744.82 1278.23 1742.75 z"/>
<path transform="translate(0,0)" fill="rgb(80,101,114)" d="M 1345.46 1627.02 C 1344.44 1622.58 1343.18 1620.77 1346.52 1617.42 L 1348.97 1618.46 C 1354.5 1612.31 1364.88 1596.76 1368.66 1593.3 L 1369.5 1594.97 C 1370.58 1587.81 1369.77 1584.26 1374.71 1578.04 C 1388.17 1576.55 1389.91 1570.92 1399.4 1563.07 C 1404.49 1558.85 1410.62 1555.23 1415.64 1550.77 C 1415.12 1547.95 1414.91 1547.72 1415.3 1544.94 L 1417.71 1548.32 C 1420.11 1548.14 1419.97 1548.27 1422.09 1549.49 C 1404.37 1563.82 1392.33 1573.66 1376.47 1590.41 C 1365.43 1602.06 1355.5 1616.25 1345.46 1627.02 z"/>
<path transform="translate(0,0)" fill="rgb(80,101,114)" d="M 1369.21 1517.8 C 1380.51 1517.12 1386.72 1516.15 1397.44 1511.81 C 1401.61 1510.12 1405.26 1507.36 1409.46 1506.89 C 1408.01 1511.99 1398.57 1512.72 1398.75 1515.97 C 1401.67 1518.3 1403.76 1520.35 1407.27 1521.58 C 1407.55 1526.03 1406.9 1529.66 1403.63 1532.87 C 1399.51 1536.91 1395.38 1533.22 1390.46 1533.53 C 1388.68 1530.99 1387.76 1526.06 1389.16 1523.18 L 1391.01 1522.4 C 1393.44 1521.33 1393.63 1521.13 1395.57 1519.19 C 1390.36 1518.34 1386.04 1522.82 1377.29 1521.67 L 1377.34 1520.59 L 1382.12 1518.54 C 1378.68 1518.45 1372.32 1518.51 1369.21 1517.8 z"/>
<path transform="translate(0,0)" fill="rgb(93,130,145)" d="M 1330.16 1781.34 C 1335.34 1783.68 1352.54 1778.09 1358.3 1784.01 L 1358.03 1785.23 L 1355.08 1784.39 C 1347.26 1787.08 1339.29 1779.96 1333.82 1785.72 C 1333.42 1794.31 1341.94 1795.6 1348.78 1796.42 C 1360.15 1797.78 1357.53 1792.87 1360 1790.9 L 1361.3 1792.6 L 1362.54 1791.78 C 1364.41 1788.98 1364.92 1787.87 1367.67 1785.83 C 1365.62 1799.66 1339.4 1808.35 1329.62 1798.25 C 1328.43 1794.51 1330.48 1789.03 1331.2 1784.42 C 1327.94 1785.42 1328.42 1787.49 1323.91 1790.04 L 1323.07 1789.18 L 1323.19 1787.1 L 1325.26 1787.74 C 1327.16 1784.26 1327.33 1784.24 1330.16 1781.34 z"/>
<path transform="translate(0,0)" fill="rgb(167,207,196)" d="M 767.049 1277.24 C 771.235 1279.72 769.109 1279.33 773.525 1278.99 C 774.24 1281.34 773.836 1280.57 775.391 1282.57 C 775.416 1279.45 775.023 1280.53 776.378 1277.97 C 778.142 1278.94 779.245 1279.44 780.799 1280.74 L 780.923 1278.01 C 783.413 1277.09 782.105 1277.25 784.961 1278.23 C 785.121 1278.62 786.049 1280.98 786.303 1281.18 C 790.501 1284.55 785.252 1280.35 787.408 1288.63 C 786.323 1291.38 786.608 1290.66 784.78 1293.12 C 777.367 1293.91 781.172 1288.34 775.719 1286.39 L 771.686 1288.63 L 770.756 1287.78 C 771.28 1285.46 771.509 1283.9 771.822 1281.54 C 770.731 1281.44 771.502 1281.45 769.491 1282.18 L 767.639 1282.86 L 766.593 1282.01 L 767.049 1277.24 z"/>
<path transform="translate(0,0)" fill="rgb(66,81,90)" d="M 1316.56 1556.87 C 1321.63 1556.54 1325.53 1556.28 1326.9 1561.82 C 1326.13 1565.47 1324.41 1566.48 1321.64 1569.06 C 1316.7 1569.35 1313.73 1569.37 1312.47 1564.33 C 1313.51 1560.47 1314.03 1560.12 1316.56 1556.87 z"/>
<path transform="translate(0,0)" fill="rgb(94,129,126)" d="M 1204.51 1105.9 L 1203.49 1103.92 C 1204.48 1101.88 1203.84 1102.87 1205.48 1101 C 1204.1 1098.21 1204.72 1099.44 1201.13 1097.46 L 1201.99 1096.58 L 1204.44 1097.36 C 1204.33 1094.65 1204.17 1091.97 1204.28 1089.27 L 1205.75 1089.25 C 1207.72 1091.3 1209.17 1092.44 1210.12 1095.12 L 1207.55 1097.64 L 1208.36 1100.24 L 1208.87 1099.98 L 1209.18 1098.67 C 1210.29 1102.74 1212.18 1107.68 1211.32 1111.6 L 1209.31 1113.34 C 1206.34 1111.53 1205.7 1109.45 1204.51 1105.9 z"/>
<path transform="translate(0,0)" fill="rgb(66,81,90)" d="M 1245.37 1166.51 C 1249.96 1167.65 1251.17 1168.17 1253.34 1172.41 C 1253.27 1177.25 1253.67 1175.38 1251.26 1179.63 C 1247.22 1177.79 1244.51 1176.66 1242.42 1172.8 C 1242.68 1168.7 1242.33 1170.19 1245.37 1166.51 z"/>
<path transform="translate(0,0)" fill="rgb(66,81,90)" d="M 1266.14 1196.61 C 1272.52 1197.96 1278.12 1202 1277.49 1208.99 C 1270.06 1208.12 1263.44 1205.5 1266.14 1196.61 z"/>
<path transform="translate(0,0)" fill="rgb(151,189,196)" d="M 1107.5 1651.25 C 1112.45 1653.68 1113.16 1650.36 1117.1 1652.07 C 1115.07 1656.49 1115.77 1655.08 1111.06 1658.15 C 1108.51 1660.1 1108.57 1660.49 1105.48 1660.7 C 1102.61 1658.88 1103.58 1660.14 1102.69 1656.62 C 1104.23 1652.74 1103.58 1654.03 1107.5 1651.25 z"/>
<path transform="translate(0,0)" fill="rgb(167,207,196)" d="M 757.303 1273.65 C 765.093 1278.46 757.089 1274.76 761.725 1280.22 C 764.031 1279.35 761.686 1277.1 765.508 1275.21 L 766.477 1276.1 L 765.349 1278.28 L 765.447 1280.21 C 764.012 1283.04 764.398 1282.27 762.161 1284.71 C 760.667 1285.1 761.581 1285.03 759.448 1284.27 C 756.282 1279.86 757.181 1279.9 757.303 1273.65 z"/>
<path transform="translate(0,0)" fill="rgb(167,207,196)" d="M 1440.86 577.583 C 1443.42 581.354 1444.21 583.626 1443.13 587.799 C 1441.34 586.195 1440.67 585.421 1439.02 583.653 C 1438.67 579.698 1438.44 581.714 1440.86 577.583 z"/>
<path transform="translate(0,0)" fill="rgb(167,207,196)" d="M 1429.1 559.218 C 1433.85 561.697 1434.23 561.283 1434.29 566.584 L 1429.96 565.337 C 1427.97 562.789 1428.62 563.593 1429.1 559.218 z"/>
<path transform="translate(0,0)" fill="rgb(133,176,101)" d="M 597.269 203.6 C 603.132 203.187 602.513 202.616 606.515 206.488 C 603.216 206.729 602.265 206.891 598.903 206.354 L 597.269 203.6 z"/>
</svg>